<?xml version="1.0" encoding="UTF-8"?>
<svg id="Layer_2" data-name="Layer 2" xmlns="http://www.w3.org/2000/svg" xmlns:xlink="http://www.w3.org/1999/xlink" width="106.59" height="106.59" viewBox="0 0 106.59 106.59">
  <defs>
    <style>
      .cls-1, .cls-2 {
        fill: none;
      }

      .cls-3 {
        fill: #f3f3f3;
      }

      .cls-4 {
        fill: #257abd;
      }

      .cls-5 {
        fill: #2e3f51;
      }

      .cls-2 {
        clip-path: url(#clippath);
      }
    </style>
    <clipPath id="clippath">
      <circle class="cls-1" cx="53.28" cy="53.29" r="53.28"/>
    </clipPath>
  </defs>
  <g id="Layer_1-2" data-name="Layer 1">
    <g>
      <circle class="cls-3" cx="53.29" cy="53.29" r="53.29"/>
      <g class="cls-2">
        <g>
          <path class="cls-5" d="m90.6,57.28c0-4.17-2.35-7.76-5.71-9.37v-.67c0-.79-.51-1.44-1.13-1.44h-1.08c-.91-6.86-4.14-12.99-8.87-17.56l.67-.67c-11.97-11.66-30.96-11.64-42.92,0l.68.68c-4.74,4.58-7.97,10.7-8.87,17.56h-.91c-.62,0-1.13.65-1.13,1.44v.67c-3.37,1.6-5.71,5.19-5.71,9.37s2.35,7.76,5.71,9.36v.67c0,.79.51,1.43,1.13,1.43h2.85c.16.69.75,1.21,1.46,1.21h1.83c.83,0,1.5-.71,1.5-1.59v-22.17c0-.87-.67-1.59-1.5-1.59h-.65c1.06-5.17,3.68-9.78,7.35-13.3l.57.57c9.62-9,24.06-9.55,34.32,0l.57-.57c3.67,3.52,6.29,8.13,7.35,13.3h-.47c-.83,0-1.5.72-1.5,1.59v22.17c0,.87.67,1.59,1.5,1.59h.11c-3.19,7.38-10.08,12.52-18.02,13.53-.27-1.48-1.36-2.75-2.9-3.2-2.18-.62-4.45.63-5.07,2.81-.62,2.18.64,4.45,2.81,5.07,2.18.62,4.45-.63,5.07-2.81.07-.25.12-.49.14-.74,8.49-1.01,15.61-6.12,19.23-14.66h.46c.7,0,1.29-.52,1.46-1.21h2.85c.62,0,1.13-.65,1.13-1.43v-.67c3.37-1.6,5.71-5.19,5.71-9.36Z"/>
          <path class="cls-4" d="m53.4,42.93c12,.34,20.68,10.99,14.99,20.44-.94,1.57-2.19,2.95-3.64,4.06-.07.05-.15.11-.15.2-.21,1.66,1.22,3.26,2.68,4.23.22.16.47.31.56.58.05.17-.09.31-.22.39-.46.3-1.05.21-1.57.28h-.73c-4.16-.12-7.83-1.94-10.36-5.76.06,1.34.4,2.69,1.08,3.86-4.97.57-9.95-.39-13.91-3.22-11.84-8.46-5.63-25.07,11.25-25.07Zm-10.12,12.21c-.75.62-1.01,1.74-.61,2.63.4.98,1.55,1.58,2.58,1.32,1.07-.21,1.87-1.29,1.78-2.37-.1-1.84-2.32-2.81-3.75-1.58Zm8.79-.45c-1.38.41-1.98,1.98-1.39,3.17.44.96,1.6,1.5,2.62,1.22,1.06-.25,1.82-1.34,1.69-2.42-.11-1.36-1.47-2.39-2.92-1.97Zm8.08-.03c-.9.21-1.62,1.02-1.71,1.93-.13.91.36,1.85,1.17,2.28.75.42,1.72.36,2.41-.14.83-.58,1.18-1.74.8-2.68-.38-1.04-1.59-1.68-2.67-1.39Z"/>
        </g>
      </g>
    </g>
  </g>
</svg>